<svg width="50" height="50" viewBox="0 0 50 50" fill="none" xmlns="http://www.w3.org/2000/svg">
<path d="M8.33329 25C8.33329 19.7182 8.33329 17.0772 9.22143 15.0032C10.3342 12.4047 12.4046 10.3343 15.0031 9.22151C17.0771 8.33337 19.7181 8.33337 25 8.33337V8.33337C30.2818 8.33337 32.9228 8.33337 34.9968 9.22151C37.5953 10.3343 39.6657 12.4047 40.7785 15.0032C41.6666 17.0772 41.6666 19.7182 41.6666 25V39.6667C41.6666 40.6095 41.6666 41.0809 41.3737 41.3738C41.0808 41.6667 40.6094 41.6667 39.6666 41.6667H25C19.7181 41.6667 17.0771 41.6667 15.0031 40.7786C12.4046 39.6658 10.3342 37.5954 9.22143 34.9969C8.33329 32.9229 8.33329 30.2819 8.33329 25V25Z" fill="#CFCFCF" stroke="#858585" stroke-width="2"/>
<path d="M17.7084 21.875H32.2917" stroke="#858585" stroke-width="2" stroke-linecap="round" stroke-linejoin="round"/>
<path d="M17.7084 28.125L28.125 28.125" stroke="#858585" stroke-width="2" stroke-linecap="round" stroke-linejoin="round"/>
</svg>
