<svg width="50" height="50" viewBox="0 0 50 50" fill="none" xmlns="http://www.w3.org/2000/svg">
<path d="M25.7818 10.4372C25.523 10.4235 25.2624 10.4166 25.0002 10.4166C16.946 10.4166 10.4168 16.9458 10.4168 25C10.4168 33.0541 16.946 39.5833 25.0002 39.5833C27.7645 39.5833 30.3492 38.8142 32.5519 37.4782C24.8611 37.0721 18.7502 30.7074 18.7502 22.9155C18.7502 17.6257 21.5666 12.9937 25.7818 10.4372Z" fill="#CFCFCF" stroke="#858585" stroke-width="3"/>
<path d="M44.6 10.2L44.6 10.2C44.4986 10.5041 44.4479 10.6562 44.3972 10.7225C44.1971 10.9843 43.8029 10.9843 43.6028 10.7225C43.5521 10.6562 43.5014 10.5041 43.4 10.2L43.4 10.2C43.3182 9.95468 43.2773 9.83201 43.2244 9.72099C43.0271 9.30672 42.6933 8.97291 42.279 8.77555C42.168 8.72266 42.0453 8.68177 41.8 8.6L41.8 8.6C41.4959 8.49863 41.3438 8.44794 41.2775 8.39724C41.0157 8.19712 41.0157 7.80288 41.2775 7.60276C41.3438 7.55206 41.4959 7.50137 41.8 7.4L41.8 7.4C42.0453 7.31822 42.168 7.27734 42.279 7.22445C42.6933 7.02709 43.0271 6.69329 43.2244 6.27901C43.2773 6.16799 43.3182 6.04532 43.4 5.8C43.5014 5.49588 43.5521 5.34382 43.6028 5.2775C43.8029 5.01569 44.1971 5.01569 44.3972 5.2775C44.4479 5.34382 44.4986 5.49588 44.6 5.8C44.6818 6.04532 44.7227 6.16799 44.7756 6.27901C44.9729 6.69329 45.3067 7.02709 45.721 7.22445C45.832 7.27734 45.9547 7.31823 46.2 7.4C46.5041 7.50137 46.6562 7.55206 46.7225 7.60276C46.9843 7.80288 46.9843 8.19712 46.7225 8.39724C46.6562 8.44794 46.5041 8.49863 46.2 8.6C45.9547 8.68177 45.832 8.72266 45.721 8.77555C45.3067 8.97291 44.9729 9.30672 44.7756 9.72099C44.7227 9.83201 44.6818 9.95468 44.6 10.2Z" fill="#858585"/>
</svg>
