<svg width="39" height="39" viewBox="0 0 39 39" fill="none" xmlns="http://www.w3.org/2000/svg">
<g clip-path="url(#clip0_35_103)">
<path d="M19.5 0C8.73275 0 0 8.73113 0 19.5C0 28.1158 5.58675 35.425 13.3364 38.0039C14.3097 38.1842 14.625 37.5797 14.625 37.0662V33.436C9.20075 34.6158 8.07138 31.135 8.07138 31.135C7.18413 28.8811 5.90525 28.2815 5.90525 28.2815C4.13563 27.0709 6.04013 27.0969 6.04013 27.0969C7.99825 27.2334 9.0285 29.107 9.0285 29.107C10.7673 32.0873 13.5899 31.226 14.703 30.7271C14.8769 29.4678 15.3823 28.6065 15.9413 28.1206C11.6106 27.625 7.05737 25.9529 7.05737 18.4827C7.05737 16.3524 7.8195 14.6136 9.06587 13.2486C8.86437 12.7562 8.1965 10.7721 9.256 8.08763C9.256 8.08763 10.894 7.56437 14.6201 10.0864C16.1752 9.65412 17.8425 9.438 19.5 9.42987C21.1575 9.438 22.8264 9.65412 24.3847 10.0864C28.1076 7.56437 29.7424 8.08763 29.7424 8.08763C30.8035 10.7738 30.1356 12.7579 29.9341 13.2486C31.1854 14.6136 31.941 16.354 31.941 18.4827C31.941 25.9724 27.3796 27.6218 23.0376 28.1044C23.7364 28.7089 24.375 29.8951 24.375 31.7151V37.0662C24.375 37.5846 24.687 38.194 25.6766 38.0022C33.4197 35.4201 39 28.1125 39 19.5C39 8.73113 30.2689 0 19.5 0Z" fill="#CFCFCF"/>
</g>
<defs>
<clipPath id="clip0_35_103">
<rect width="39" height="39" fill="white"/>
</clipPath>
</defs>
</svg>
