<svg width="50" height="50" viewBox="0 0 50 50" fill="none" xmlns="http://www.w3.org/2000/svg">
<path d="M10.4167 27.0585C10.4167 26.0494 10.4167 25.5448 10.6384 25.1141C10.86 24.6834 11.2706 24.3901 12.0917 23.8036L23.8375 15.4137C24.3989 15.0128 24.6796 14.8123 25 14.8123C25.3205 14.8123 25.6012 15.0128 26.1625 15.4137L37.9083 23.8036C38.7295 24.3901 39.14 24.6834 39.3617 25.1141C39.5834 25.5448 39.5834 26.0494 39.5834 27.0585V41.75C39.5834 42.6928 39.5834 43.1643 39.2905 43.4571C38.9976 43.75 38.5262 43.75 37.5834 43.75H12.4167C11.4739 43.75 11.0025 43.75 10.7096 43.4571C10.4167 43.1643 10.4167 42.6928 10.4167 41.75V27.0585Z" fill="#CFCFCF"/>
<path d="M6.25 26.47C6.25 26.7369 6.25 26.8703 6.3341 26.9114C6.41819 26.9526 6.52352 26.8706 6.73418 26.7068L23.7721 13.4551C24.362 12.9963 24.6569 12.7669 25 12.7669C25.3431 12.7669 25.638 12.9963 26.2279 13.4551L43.2658 26.7068C43.4765 26.8706 43.5818 26.9526 43.6659 26.9114C43.75 26.8703 43.75 26.7369 43.75 26.47V23.8949C43.75 23.4145 43.75 23.1743 43.6483 22.9664C43.5466 22.7585 43.357 22.6111 42.9779 22.3162L26.2279 9.28839C25.638 8.82962 25.3431 8.60024 25 8.60024C24.6569 8.60024 24.362 8.82962 23.7721 9.28839L7.02212 22.3162C6.64295 22.6111 6.45337 22.7585 6.35168 22.9664C6.25 23.1743 6.25 23.4145 6.25 23.8949V26.47Z" fill="#858585"/>
<path d="M28.2084 31.25H21.7917C20.6871 31.25 19.7917 32.1454 19.7917 33.25V43.6C19.7917 43.6828 19.8588 43.75 19.9417 43.75H30.0584C30.1412 43.75 30.2084 43.6828 30.2084 43.6V33.25C30.2084 32.1454 29.3129 31.25 28.2084 31.25Z" fill="#858585"/>
</svg>
