<svg width="176" height="124" viewBox="0 0 176 124" fill="none" xmlns="http://www.w3.org/2000/svg">
<path d="M61.9848 83.08C61.9848 81.0747 61.3894 79.3827 60.1988 78.004C59.0081 76.5627 57.5041 75.2153 55.6868 73.962C53.9321 72.7087 51.9894 71.424 49.8588 70.108C47.7908 68.792 45.8481 67.2567 44.0308 65.502C42.2761 63.7473 40.8034 61.6793 39.6128 59.298C38.4221 56.9167 37.8268 54.0027 37.8268 50.556C37.8268 47.36 38.2968 44.6653 39.2368 42.472C40.2394 40.216 41.5868 38.3987 43.2788 37.02C44.9708 35.5787 46.9761 34.5447 49.2948 33.918C51.6134 33.2287 54.0888 32.884 56.7208 32.884C59.9168 32.884 62.8934 33.1973 65.6508 33.824C68.4081 34.4507 70.6954 35.2967 72.5128 36.362L68.8468 46.796C67.7814 46.044 66.1834 45.3547 64.0528 44.728C61.9848 44.1013 59.7288 43.788 57.2848 43.788C54.8408 43.788 52.9608 44.2893 51.6448 45.292C50.3288 46.2947 49.6708 47.7673 49.6708 49.71C49.6708 51.4647 50.2661 53.0313 51.4568 54.41C52.6474 55.726 54.1201 57.0107 55.8748 58.264C57.6921 59.5173 59.6348 60.8333 61.7028 62.212C63.8334 63.528 65.7761 65.0947 67.5308 66.912C69.3481 68.6667 70.8521 70.766 72.0428 73.21C73.2334 75.5913 73.8288 78.4427 73.8288 81.764C73.8288 85.0853 73.3274 87.968 72.3248 90.412C71.3848 92.856 70.0061 94.8927 68.1888 96.522C66.4341 98.0887 64.3034 99.2793 61.7968 100.094C59.2901 100.909 56.5014 101.316 53.4308 101.316C49.5454 101.316 46.1301 100.94 43.1848 100.188C40.3021 99.436 38.0774 98.59 36.5108 97.65L40.3648 87.028C41.6181 87.78 43.3414 88.532 45.5348 89.284C47.7281 90.036 50.0781 90.412 52.5848 90.412C58.8514 90.412 61.9848 87.968 61.9848 83.08ZM125.195 66.066L126.511 53.47H126.041L122.563 64.75L111.847 87.874H107.899L96.5254 64.656L93.0474 53.282H92.4834L94.2694 65.972V100H83.0834V34.2H94.4574L108.181 62.682L110.437 70.86H110.813L112.975 62.494L125.853 34.2H137.039V100H125.195V66.066Z" fill="white"/>
<path d="M35 62H146V72H35V62Z" fill="black" stroke="black"/>
<line x1="35" y1="61.5" x2="148" y2="61.5" stroke="white"/>
<line x1="35" y1="72.5" x2="148" y2="72.5" stroke="white"/>
<path d="M55.9871 69.07C56.1137 69.1567 56.2904 69.24 56.5171 69.32C56.7504 69.3933 57.0137 69.43 57.3071 69.43C57.6804 69.43 57.9837 69.34 58.2171 69.16C58.4504 68.9733 58.5671 68.6833 58.5671 68.29C58.5671 68.03 58.5004 67.8033 58.3671 67.61C58.2337 67.4167 58.0671 67.24 57.8671 67.08C57.6671 66.9133 57.4504 66.7533 57.2171 66.6C56.9904 66.44 56.7771 66.2667 56.5771 66.08C56.3771 65.8867 56.2104 65.6667 56.0771 65.42C55.9437 65.1733 55.8771 64.8767 55.8771 64.53C55.8771 63.97 56.0437 63.5567 56.3771 63.29C56.7171 63.0167 57.1571 62.88 57.6971 62.88C58.0304 62.88 58.3271 62.91 58.5871 62.97C58.8471 63.03 59.0571 63.1067 59.2171 63.2L58.9771 63.86C58.8571 63.7867 58.6837 63.72 58.4571 63.66C58.2371 63.6 57.9804 63.57 57.6871 63.57C57.3271 63.57 57.0604 63.66 56.8871 63.84C56.7137 64.0133 56.6271 64.2333 56.6271 64.5C56.6271 64.7333 56.6937 64.94 56.8271 65.12C56.9604 65.3 57.1271 65.47 57.3271 65.63C57.5271 65.79 57.7404 65.9533 57.9671 66.12C58.2004 66.28 58.4171 66.46 58.6171 66.66C58.8171 66.86 58.9837 67.0867 59.1171 67.34C59.2504 67.5933 59.3171 67.8933 59.3171 68.24C59.3171 68.8267 59.1437 69.2867 58.7971 69.62C58.4504 69.9533 57.9604 70.12 57.3271 70.12C56.9271 70.12 56.5971 70.0833 56.3371 70.01C56.0837 69.9367 55.8804 69.8533 55.7271 69.76L55.9871 69.07ZM60.7644 63H61.5144V70H60.7644V63ZM63.2484 63C63.3551 62.98 63.4717 62.9667 63.5984 62.96C63.7317 62.9467 63.8651 62.94 63.9984 62.94C64.1317 62.9333 64.2617 62.93 64.3884 62.93C64.5217 62.9233 64.6451 62.92 64.7584 62.92C65.2451 62.92 65.6584 63.0033 65.9984 63.17C66.3384 63.3367 66.6151 63.5767 66.8284 63.89C67.0417 64.1967 67.1951 64.5667 67.2884 65C67.3817 65.4333 67.4284 65.9167 67.4284 66.45C67.4284 66.93 67.3817 67.39 67.2884 67.83C67.2017 68.27 67.0517 68.6567 66.8384 68.99C66.6251 69.3233 66.3417 69.59 65.9884 69.79C65.6417 69.99 65.2051 70.09 64.6784 70.09C64.5917 70.09 64.4817 70.0867 64.3484 70.08C64.2151 70.08 64.0751 70.0733 63.9284 70.06C63.7884 70.0533 63.6551 70.0467 63.5284 70.04C63.4084 70.0333 63.3151 70.0233 63.2484 70.01V63ZM64.7984 63.61C64.7317 63.61 64.6584 63.61 64.5784 63.61C64.5051 63.61 64.4317 63.6133 64.3584 63.62C64.2851 63.6267 64.2151 63.6333 64.1484 63.64C64.0884 63.6467 64.0384 63.6533 63.9984 63.66V69.36C64.0251 69.3667 64.0717 69.3733 64.1384 69.38C64.2117 69.38 64.2851 69.3833 64.3584 69.39C64.4384 69.39 64.5117 69.3933 64.5784 69.4C64.6517 69.4 64.7051 69.4 64.7384 69.4C65.1051 69.4 65.4117 69.32 65.6584 69.16C65.9051 69 66.0984 68.7867 66.2384 68.52C66.3851 68.2467 66.4884 67.9333 66.5484 67.58C66.6084 67.22 66.6384 66.84 66.6384 66.44C66.6384 66.0867 66.6117 65.74 66.5584 65.4C66.5051 65.06 66.4084 64.76 66.2684 64.5C66.1351 64.2333 65.9484 64.02 65.7084 63.86C65.4751 63.6933 65.1717 63.61 64.7984 63.61ZM68.8023 63C68.909 62.98 69.0256 62.9667 69.1523 62.96C69.2856 62.9467 69.419 62.94 69.5523 62.94C69.6856 62.9333 69.8156 62.93 69.9423 62.93C70.0756 62.9233 70.199 62.92 70.3123 62.92C70.799 62.92 71.2123 63.0033 71.5523 63.17C71.8923 63.3367 72.169 63.5767 72.3823 63.89C72.5956 64.1967 72.749 64.5667 72.8423 65C72.9356 65.4333 72.9823 65.9167 72.9823 66.45C72.9823 66.93 72.9356 67.39 72.8423 67.83C72.7556 68.27 72.6056 68.6567 72.3923 68.99C72.179 69.3233 71.8956 69.59 71.5423 69.79C71.1956 69.99 70.759 70.09 70.2323 70.09C70.1456 70.09 70.0356 70.0867 69.9023 70.08C69.769 70.08 69.629 70.0733 69.4823 70.06C69.3423 70.0533 69.209 70.0467 69.0823 70.04C68.9623 70.0333 68.869 70.0233 68.8023 70.01V63ZM70.3523 63.61C70.2856 63.61 70.2123 63.61 70.1323 63.61C70.059 63.61 69.9856 63.6133 69.9123 63.62C69.839 63.6267 69.769 63.6333 69.7023 63.64C69.6423 63.6467 69.5923 63.6533 69.5523 63.66V69.36C69.579 69.3667 69.6256 69.3733 69.6923 69.38C69.7656 69.38 69.839 69.3833 69.9123 69.39C69.9923 69.39 70.0656 69.3933 70.1323 69.4C70.2056 69.4 70.259 69.4 70.2923 69.4C70.659 69.4 70.9656 69.32 71.2123 69.16C71.459 69 71.6523 68.7867 71.7923 68.52C71.939 68.2467 72.0423 67.9333 72.1023 67.58C72.1623 67.22 72.1923 66.84 72.1923 66.44C72.1923 66.0867 72.1656 65.74 72.1123 65.4C72.059 65.06 71.9623 64.76 71.8223 64.5C71.689 64.2333 71.5023 64.02 71.2623 63.86C71.029 63.6933 70.7256 63.61 70.3523 63.61ZM77.6862 66.77H75.1062V70H74.3562V63H75.1062V66.08H77.6862V63H78.4362V70H77.6862V66.77ZM82.7075 68.04H80.7275L80.1675 70H79.4275L81.5375 62.89H81.9475L84.0575 70H83.2775L82.7075 68.04ZM80.9275 67.37H82.5275L81.9175 65.21L81.7275 64.16H81.7075L81.5175 65.23L80.9275 67.37ZM85.0441 63.07C85.2641 63.0167 85.5041 62.98 85.7641 62.96C86.0308 62.9333 86.2741 62.92 86.4941 62.92C86.7541 62.92 87.0008 62.9533 87.2341 63.02C87.4674 63.08 87.6708 63.1867 87.8441 63.34C88.0174 63.4867 88.1541 63.6833 88.2541 63.93C88.3608 64.17 88.4141 64.4733 88.4141 64.84C88.4141 65.3933 88.2974 65.8367 88.0641 66.17C87.8374 66.5033 87.5341 66.7267 87.1541 66.84L87.5341 67.21L88.9141 70H88.0441L86.5441 66.95L85.7941 66.8V70H85.0441V63.07ZM85.7941 66.3H86.3941C86.7741 66.3 87.0741 66.1833 87.2941 65.95C87.5141 65.7167 87.6241 65.36 87.6241 64.88C87.6241 64.5133 87.5308 64.21 87.3441 63.97C87.1641 63.73 86.8941 63.61 86.5341 63.61C86.4008 63.61 86.2608 63.6167 86.1141 63.63C85.9741 63.6367 85.8674 63.65 85.7941 63.67V66.3ZM93.37 63.69H91.65V70H90.9V63.69H89.18V63H93.37V63.69ZM97.7827 66.77H95.2027V70H94.4527V63H95.2027V66.08H97.7827V63H98.5327V70H97.7827V66.77ZM106.873 65.4L106.963 64.34H106.923L106.603 65.33L105.193 68.37H104.943L103.463 65.33L103.153 64.34H103.113L103.253 65.4V70H102.533V63H103.163L104.853 66.44L105.103 67.26H105.123L105.363 66.43L106.963 63H107.623V70H106.873V65.4ZM111.89 68.04H109.91L109.35 70H108.61L110.72 62.89H111.13L113.24 70H112.46L111.89 68.04ZM110.11 67.37H111.71L111.1 65.21L110.91 64.16H110.89L110.7 65.23L110.11 67.37ZM117.597 70H114.227V63H114.977V69.31H117.597V70ZM118.827 63H119.577V70H118.827V63ZM122.421 66.76H122.061V70H121.311V63H122.061V66.26L122.411 66.12L124.231 63H125.091L123.261 66.02L122.911 66.34L123.321 66.74L125.351 70H124.401L122.421 66.76Z" fill="white"/>
</svg>
