<svg width="50" height="50" viewBox="0 0 50 50" fill="none" xmlns="http://www.w3.org/2000/svg">
<path fill-rule="evenodd" clip-rule="evenodd" d="M15.1691 8.9191C14.5833 9.50489 14.5833 10.4477 14.5833 12.3333V14.6666H18.7499C19.8545 14.6666 20.7499 15.5621 20.7499 16.6666C20.7499 17.7712 19.8545 18.6666 18.7499 18.6666H14.5833V25.0833H18.7499C19.8545 25.0833 20.7499 25.9787 20.7499 27.0833C20.7499 28.1879 19.8545 29.0833 18.7499 29.0833H14.5833V35.5H18.7499C19.8545 35.5 20.7499 36.3954 20.7499 37.5C20.7499 38.6046 19.8545 39.5 18.7499 39.5H14.5833V39.75C14.5833 41.6356 14.5833 42.5784 15.1691 43.1642C15.7548 43.75 16.6977 43.75 18.5833 43.75H37.6666C39.5522 43.75 40.495 43.75 41.0808 43.1642C41.6666 42.5784 41.6666 41.6356 41.6666 39.75V12.3333C41.6666 10.4477 41.6666 9.50489 41.0808 8.9191C40.495 8.33331 39.5522 8.33331 37.6666 8.33331H18.5833C16.6977 8.33331 15.7548 8.33331 15.1691 8.9191ZM33.3332 21.8333C32.7809 21.8333 32.3332 21.3856 32.3332 20.8333V16.6666C32.3332 16.1144 32.7809 15.6666 33.3332 15.6666C33.8855 15.6666 34.3332 16.1144 34.3332 16.6666V20.8333C34.3332 21.3856 33.8855 21.8333 33.3332 21.8333ZM10.4165 15.6666C9.86422 15.6666 9.4165 16.1144 9.4165 16.6666C9.4165 17.2189 9.86422 17.6666 10.4165 17.6666H18.7498C19.3021 17.6666 19.7498 17.2189 19.7498 16.6666C19.7498 16.1144 19.3021 15.6666 18.7498 15.6666H10.4165ZM10.4165 26.0833C9.86422 26.0833 9.4165 26.531 9.4165 27.0833C9.4165 27.6356 9.86422 28.0833 10.4165 28.0833H18.7498C19.3021 28.0833 19.7498 27.6356 19.7498 27.0833C19.7498 26.531 19.3021 26.0833 18.7498 26.0833H10.4165ZM10.4165 36.5C9.86422 36.5 9.4165 36.9477 9.4165 37.5C9.4165 38.0523 9.86422 38.5 10.4165 38.5H18.7498C19.3021 38.5 19.7498 38.0523 19.7498 37.5C19.7498 36.9477 19.3021 36.5 18.7498 36.5H10.4165Z" fill="#CFCFCF"/>
</svg>
