<svg width="50" height="50" viewBox="0 0 50 50" fill="none" xmlns="http://www.w3.org/2000/svg">
<path fill-rule="evenodd" clip-rule="evenodd" d="M15.1692 8.91916C14.5835 9.50495 14.5835 10.4478 14.5835 12.3334V14.6667H18.7501C19.8547 14.6667 20.7501 15.5621 20.7501 16.6667C20.7501 17.7713 19.8547 18.6667 18.7501 18.6667H14.5835V25.0834H18.7501C19.8547 25.0834 20.7501 25.9788 20.7501 27.0834C20.7501 28.1879 19.8547 29.0834 18.7501 29.0834H14.5835V35.5H18.7501C19.8547 35.5 20.7501 36.3955 20.7501 37.5C20.7501 38.6046 19.8547 39.5 18.7501 39.5H14.5835V39.75C14.5835 41.6357 14.5835 42.5785 15.1692 43.1643C15.755 43.75 16.6978 43.75 18.5835 43.75H37.6668C39.5524 43.75 40.4952 43.75 41.081 43.1643C41.6668 42.5785 41.6668 41.6357 41.6668 39.75V12.3334C41.6668 10.4478 41.6668 9.50495 41.081 8.91916C40.4952 8.33337 39.5524 8.33337 37.6668 8.33337H18.5835C16.6978 8.33337 15.755 8.33337 15.1692 8.91916ZM33.3334 21.8334C32.7811 21.8334 32.3334 21.3857 32.3334 20.8334V16.6667C32.3334 16.1144 32.7811 15.6667 33.3334 15.6667C33.8856 15.6667 34.3334 16.1144 34.3334 16.6667V20.8334C34.3334 21.3857 33.8856 21.8334 33.3334 21.8334ZM10.4167 15.6667C9.8644 15.6667 9.41669 16.1144 9.41669 16.6667C9.41669 17.219 9.8644 17.6667 10.4167 17.6667H18.75C19.3023 17.6667 19.75 17.219 19.75 16.6667C19.75 16.1144 19.3023 15.6667 18.75 15.6667H10.4167ZM10.4167 26.0834C9.8644 26.0834 9.41669 26.5311 9.41669 27.0834C9.41669 27.6357 9.8644 28.0834 10.4167 28.0834H18.75C19.3023 28.0834 19.75 27.6357 19.75 27.0834C19.75 26.5311 19.3023 26.0834 18.75 26.0834H10.4167ZM10.4167 36.5C9.8644 36.5 9.41669 36.9478 9.41669 37.5C9.41669 38.0523 9.8644 38.5 10.4167 38.5H18.75C19.3023 38.5 19.75 38.0523 19.75 37.5C19.75 36.9478 19.3023 36.5 18.75 36.5H10.4167Z" fill="#858585"/>
</svg>
