<svg width="50" height="50" viewBox="0 0 50 50" fill="none" xmlns="http://www.w3.org/2000/svg">
<path d="M25 8.33337L10.4167 14.5834L25 20.8334L39.5834 14.5834L25 8.33337Z" stroke="#33363F" stroke-width="2" stroke-linejoin="round"/>
<path fill-rule="evenodd" clip-rule="evenodd" d="M18.7616 20.3357L10.0228 24.0809C9.65508 24.2384 9.41669 24.6 9.41669 25C9.41669 25.4 9.65508 25.7616 10.0228 25.9191L24.6061 32.1691C24.8576 32.277 25.1424 32.277 25.3939 32.1691L39.9773 25.9191C40.345 25.7616 40.5834 25.4 40.5834 25C40.5834 24.6 40.345 24.2384 39.9773 24.0809L31.2385 20.3357L28.6999 21.4236L37.0448 25L25 30.162L12.9553 25L21.3002 21.4236L18.7616 20.3357ZM23.8388 18.1597L24.6061 17.8309C24.8576 17.723 25.1424 17.723 25.3939 17.8309L26.1613 18.1597L25 18.6574L23.8388 18.1597Z" fill="#33363F"/>
<path fill-rule="evenodd" clip-rule="evenodd" d="M18.7616 30.7523L10.0228 34.4975C9.65508 34.6551 9.41669 35.0166 9.41669 35.4166C9.41669 35.8167 9.65508 36.1782 10.0228 36.3358L24.6061 42.5858C24.8576 42.6936 25.1424 42.6936 25.3939 42.5858L39.9773 36.3358C40.345 36.1782 40.5834 35.8167 40.5834 35.4166C40.5834 35.0166 40.345 34.6551 39.9773 34.4975L31.2385 30.7523L28.6999 31.8402L37.0448 35.4166L25 40.5787L12.9553 35.4166L21.3002 31.8402L18.7616 30.7523ZM23.8388 28.5763L24.6061 28.2475C24.8576 28.1397 25.1424 28.1397 25.3939 28.2475L26.1613 28.5763L25 29.074L23.8388 28.5763Z" fill="#33363F"/>
</svg>
