<svg width="50" height="50" viewBox="0 0 50 50" fill="none" xmlns="http://www.w3.org/2000/svg">
<path d="M6.57979 29.0221C5.09436 26.5464 5.09436 23.4536 6.57979 20.9779V20.9779C7.03308 20.2224 7.78403 19.6932 8.64796 19.5204L12.1751 18.8149C12.3852 18.7729 12.5747 18.6602 12.7118 18.4956L20.0873 9.64498C21.2699 8.22592 21.8612 7.51638 22.3888 7.70742C22.9165 7.89846 22.9165 8.82207 22.9165 10.6693L22.9165 39.3307C22.9165 41.1779 22.9165 42.1015 22.3888 42.2926C21.8612 42.4836 21.2699 41.7741 20.0873 40.355L12.7118 31.5044C12.5747 31.3398 12.3852 31.2271 12.1751 31.1851L8.64796 30.4796C7.78403 30.3068 7.03308 29.7776 6.57979 29.0221V29.0221Z" fill="#CFCFCF"/>
<path d="M32.3659 17.6343C34.3093 19.5778 35.4059 22.2105 35.4167 24.959C35.4276 27.7074 34.3517 30.3487 32.4237 32.3074" stroke="#858585" stroke-width="3" stroke-linecap="round"/>
<path d="M40.9518 13.2149C44.0613 16.3244 45.8159 20.5369 45.8332 24.9344C45.8505 29.3318 44.1292 33.558 41.0443 36.6919" stroke="#858585" stroke-width="3" stroke-linecap="round"/>
</svg>
