<svg width="50" height="50" viewBox="0 0 50 50" fill="none" xmlns="http://www.w3.org/2000/svg">
<path d="M6.57998 29.0221C5.09455 26.5464 5.09455 23.4536 6.57997 20.9779V20.9779C7.03326 20.2224 7.78422 19.6932 8.64814 19.5204L12.1753 18.8149C12.3854 18.7729 12.5748 18.6602 12.712 18.4956L20.0875 9.64498C21.2701 8.22592 21.8614 7.51638 22.389 7.70742C22.9167 7.89846 22.9167 8.82207 22.9167 10.6693L22.9167 39.3307C22.9167 41.1779 22.9167 42.1015 22.389 42.2926C21.8614 42.4836 21.2701 41.7741 20.0875 40.355L12.712 31.5044C12.5748 31.3398 12.3854 31.2271 12.1753 31.1851L8.64814 30.4796C7.78422 30.3068 7.03326 29.7776 6.57998 29.0221V29.0221Z" fill="#CFCFCF" stroke="#858585" stroke-width="3"/>
<path d="M32.3657 17.6343C34.3091 19.5778 35.4057 22.2106 35.4166 24.959C35.4274 27.7074 34.3516 30.3488 32.4235 32.3075" stroke="#858585" stroke-width="3" stroke-linecap="round"/>
<path d="M40.9518 13.2149C44.0613 16.3244 45.8159 20.5369 45.8332 24.9344C45.8505 29.3319 44.1292 33.558 41.0443 36.6919" stroke="#858585" stroke-width="3" stroke-linecap="round"/>
</svg>
