<svg width="54" height="54" viewBox="0 0 54 54" fill="none" xmlns="http://www.w3.org/2000/svg">
<path d="M27 52L3.02871 38.6826C2.52708 38.4039 2.27626 38.2646 2.13813 38.0298C2 37.7951 2 37.5082 2 36.9343V15.8889L26.0287 2.5396C26.5035 2.27584 26.7409 2.14396 27 2.14396C27.2591 2.14396 27.4965 2.27584 27.9713 2.5396L52 15.8889V36.9343C52 37.5082 52 37.7951 51.8619 38.0298C51.7237 38.2646 51.4729 38.4039 50.9713 38.6826L27 52Z" fill="#CFCFCF"/>
<path d="M27 52V29.7778M27 52L3.02871 38.6826C2.52708 38.4039 2.27626 38.2646 2.13813 38.0298C2 37.7951 2 37.5082 2 36.9343V15.8889M27 52L50.9713 38.6826C51.4729 38.4039 51.7237 38.2646 51.8619 38.0298C52 37.7951 52 37.5082 52 36.9343V15.8889M27 29.7778L2 15.8889M27 29.7778L52 15.8889M2 15.8889L26.0287 2.5396C26.5035 2.27584 26.7409 2.14396 27 2.14396C27.2591 2.14396 27.4965 2.27584 27.9713 2.5396L52 15.8889" stroke="#858585" stroke-width="3" stroke-linejoin="round"/>
</svg>
